<?xml version="1.0" encoding="utf-8" standalone="no"?>
<!DOCTYPE svg PUBLIC "-//W3C//DTD SVG 1.1//EN"
  "http://www.w3.org/Graphics/SVG/1.1/DTD/svg11.dtd">
<svg xmlns:xlink="http://www.w3.org/1999/xlink" width="646.054375pt" height="317.570538pt" viewBox="0 0 646.054375 317.570538" xmlns="http://www.w3.org/2000/svg" version="1.1">
 <metadata>
  <rdf:RDF xmlns:dc="http://purl.org/dc/elements/1.1/" xmlns:cc="http://creativecommons.org/ns#" xmlns:rdf="http://www.w3.org/1999/02/22-rdf-syntax-ns#">
   <cc:Work>
    <dc:type rdf:resource="http://purl.org/dc/dcmitype/StillImage"/>
    <dc:format>image/svg+xml</dc:format>
    <dc:creator>
     <cc:Agent>
      <dc:title>Matplotlib v3.11.1, https://matplotlib.org/</dc:title>
     </cc:Agent>
    </dc:creator>
   </cc:Work>
  </rdf:RDF>
 </metadata>
 <defs>
  <style type="text/css">*{stroke-linejoin: round; stroke-linecap: butt}</style>
 </defs>
 <g id="figure_1">
  <g id="patch_1">
   <path d="M 0 317.570538
L 646.054375 317.570538
L 646.054375 0
L 0 0
z
" style="fill: #fcfcfa"/>
  </g>
  <g id="axes_1">
   <g id="patch_2">
    <path d="M 114.334375 245.21475
L 638.854375 245.21475
L 638.854375 23.45475
L 114.334375 23.45475
z
" style="fill: #fcfcfa"/>
   </g>
   <g id="patch_3">
    <path d="M 114.334375 235.13475
L 287.439229 235.13475
L 287.439229 167.93475
L 114.334375 167.93475
z
" clip-path="url(#pa5ee5d00d5)" style="fill: #c1b7a8"/>
   </g>
   <g id="patch_4">
    <path d="M 114.334375 100.73475
L 576.72366 100.73475
L 576.72366 33.53475
L 114.334375 33.53475
z
" clip-path="url(#pa5ee5d00d5)" style="fill: #087e8b"/>
   </g>
   <g id="matplotlib.axis_1">
    <g id="xtick_1">
     <g id="line2d_1">
      <defs>
       <path id="mb886886792" d="M 0 0
L 0 3.5
" style="stroke: #000000; stroke-width: 0.8"/>
      </defs>
      <g>
       <use xlink:href="#mb886886792" x="114.334375" y="245.21475" style="stroke: #000000; stroke-width: 0.8"/>
      </g>
     </g>
     <g id="text_1">
      <!-- 0 -->
      <g transform="translate(110.835 260.572172) scale(0.11 -0.11)">
       <defs>
        <path id="DejaVuSans-13" d="M 2034 4250
Q 1547 4250 1301 3770
Q 1056 3291 1056 2328
Q 1056 1369 1301 889
Q 1547 409 2034 409
Q 2525 409 2770 889
Q 3016 1369 3016 2328
Q 3016 3291 2770 3770
Q 2525 4250 2034 4250
z
M 2034 4750
Q 2819 4750 3233 4129
Q 3647 3509 3647 2328
Q 3647 1150 3233 529
Q 2819 -91 2034 -91
Q 1250 -91 836 529
Q 422 1150 422 2328
Q 422 3509 836 4129
Q 1250 4750 2034 4750
z
" transform="scale(0.015625)"/>
       </defs>
       <use xlink:href="#DejaVuSans-13"/>
      </g>
     </g>
    </g>
    <g id="xtick_2">
     <g id="line2d_2">
      <g>
       <use xlink:href="#mb886886792" x="212.375496" y="245.21475" style="stroke: #000000; stroke-width: 0.8"/>
      </g>
     </g>
     <g id="text_2">
      <!-- 20 -->
      <g transform="translate(205.376746 260.572172) scale(0.11 -0.11)">
       <defs>
        <path id="DejaVuSans-15" d="M 1228 531
L 3431 531
L 3431 0
L 469 0
L 469 531
Q 828 903 1448 1529
Q 2069 2156 2228 2338
Q 2531 2678 2651 2914
Q 2772 3150 2772 3378
Q 2772 3750 2511 3984
Q 2250 4219 1831 4219
Q 1534 4219 1204 4116
Q 875 4013 500 3803
L 500 4441
Q 881 4594 1212 4672
Q 1544 4750 1819 4750
Q 2544 4750 2975 4387
Q 3406 4025 3406 3419
Q 3406 3131 3298 2873
Q 3191 2616 2906 2266
Q 2828 2175 2409 1742
Q 1991 1309 1228 531
z
" transform="scale(0.015625)"/>
       </defs>
       <use xlink:href="#DejaVuSans-15"/>
       <use xlink:href="#DejaVuSans-13" transform="translate(63.625 0)"/>
      </g>
     </g>
    </g>
    <g id="xtick_3">
     <g id="line2d_3">
      <g>
       <use xlink:href="#mb886886792" x="310.416618" y="245.21475" style="stroke: #000000; stroke-width: 0.8"/>
      </g>
     </g>
     <g id="text_3">
      <!-- 40 -->
      <g transform="translate(303.417868 260.572172) scale(0.11 -0.11)">
       <defs>
        <path id="DejaVuSans-17" d="M 2419 4116
L 825 1625
L 2419 1625
L 2419 4116
z
M 2253 4666
L 3047 4666
L 3047 1625
L 3713 1625
L 3713 1100
L 3047 1100
L 3047 0
L 2419 0
L 2419 1100
L 313 1100
L 313 1709
L 2253 4666
z
" transform="scale(0.015625)"/>
       </defs>
       <use xlink:href="#DejaVuSans-17"/>
       <use xlink:href="#DejaVuSans-13" transform="translate(63.625 0)"/>
      </g>
     </g>
    </g>
    <g id="xtick_4">
     <g id="line2d_4">
      <g>
       <use xlink:href="#mb886886792" x="408.457739" y="245.21475" style="stroke: #000000; stroke-width: 0.8"/>
      </g>
     </g>
     <g id="text_4">
      <!-- 60 -->
      <g transform="translate(401.458989 260.572172) scale(0.11 -0.11)">
       <defs>
        <path id="DejaVuSans-19" d="M 2113 2584
Q 1688 2584 1439 2293
Q 1191 2003 1191 1497
Q 1191 994 1439 701
Q 1688 409 2113 409
Q 2538 409 2786 701
Q 3034 994 3034 1497
Q 3034 2003 2786 2293
Q 2538 2584 2113 2584
z
M 3366 4563
L 3366 3988
Q 3128 4100 2886 4159
Q 2644 4219 2406 4219
Q 1781 4219 1451 3797
Q 1122 3375 1075 2522
Q 1259 2794 1537 2939
Q 1816 3084 2150 3084
Q 2853 3084 3261 2657
Q 3669 2231 3669 1497
Q 3669 778 3244 343
Q 2819 -91 2113 -91
Q 1303 -91 875 529
Q 447 1150 447 2328
Q 447 3434 972 4092
Q 1497 4750 2381 4750
Q 2619 4750 2861 4703
Q 3103 4656 3366 4563
z
" transform="scale(0.015625)"/>
       </defs>
       <use xlink:href="#DejaVuSans-19"/>
       <use xlink:href="#DejaVuSans-13" transform="translate(63.625 0)"/>
      </g>
     </g>
    </g>
    <g id="xtick_5">
     <g id="line2d_5">
      <g>
       <use xlink:href="#mb886886792" x="506.498861" y="245.21475" style="stroke: #000000; stroke-width: 0.8"/>
      </g>
     </g>
     <g id="text_5">
      <!-- 80 -->
      <g transform="translate(499.500111 260.572172) scale(0.11 -0.11)">
       <defs>
        <path id="DejaVuSans-1b" d="M 2034 2216
Q 1584 2216 1326 1975
Q 1069 1734 1069 1313
Q 1069 891 1326 650
Q 1584 409 2034 409
Q 2484 409 2743 651
Q 3003 894 3003 1313
Q 3003 1734 2745 1975
Q 2488 2216 2034 2216
z
M 1403 2484
Q 997 2584 770 2862
Q 544 3141 544 3541
Q 544 4100 942 4425
Q 1341 4750 2034 4750
Q 2731 4750 3128 4425
Q 3525 4100 3525 3541
Q 3525 3141 3298 2862
Q 3072 2584 2669 2484
Q 3125 2378 3379 2068
Q 3634 1759 3634 1313
Q 3634 634 3220 271
Q 2806 -91 2034 -91
Q 1263 -91 848 271
Q 434 634 434 1313
Q 434 1759 690 2068
Q 947 2378 1403 2484
z
M 1172 3481
Q 1172 3119 1398 2916
Q 1625 2713 2034 2713
Q 2441 2713 2670 2916
Q 2900 3119 2900 3481
Q 2900 3844 2670 4047
Q 2441 4250 2034 4250
Q 1625 4250 1398 4047
Q 1172 3844 1172 3481
z
" transform="scale(0.015625)"/>
       </defs>
       <use xlink:href="#DejaVuSans-1b"/>
       <use xlink:href="#DejaVuSans-13" transform="translate(63.625 0)"/>
      </g>
     </g>
    </g>
    <g id="xtick_6">
     <g id="line2d_6">
      <g>
       <use xlink:href="#mb886886792" x="604.539982" y="245.21475" style="stroke: #000000; stroke-width: 0.8"/>
      </g>
     </g>
     <g id="text_6">
      <!-- 100 -->
      <g transform="translate(594.041857 260.572172) scale(0.11 -0.11)">
       <defs>
        <path id="DejaVuSans-14" d="M 794 531
L 1825 531
L 1825 4091
L 703 3866
L 703 4441
L 1819 4666
L 2450 4666
L 2450 531
L 3481 531
L 3481 0
L 794 0
L 794 531
z
" transform="scale(0.015625)"/>
       </defs>
       <use xlink:href="#DejaVuSans-14"/>
       <use xlink:href="#DejaVuSans-13" transform="translate(63.625 0)"/>
       <use xlink:href="#DejaVuSans-13" transform="translate(127.25 0)"/>
      </g>
     </g>
    </g>
    <g id="text_7">
     <!-- Средний IoU маски по изображениям, % -->
     <g style="fill: #162c46" transform="translate(259.118672 275.760375) scale(0.11 -0.11)">
      <defs>
       <path id="DejaVuSans-3b5" d="M 4122 4306
L 4122 3641
Q 3803 3938 3442 4084
Q 3081 4231 2675 4231
Q 1875 4231 1450 3742
Q 1025 3253 1025 2328
Q 1025 1406 1450 917
Q 1875 428 2675 428
Q 3081 428 3442 575
Q 3803 722 4122 1019
L 4122 359
Q 3791 134 3420 21
Q 3050 -91 2638 -91
Q 1578 -91 968 557
Q 359 1206 359 2328
Q 359 3453 968 4101
Q 1578 4750 2638 4750
Q 3056 4750 3426 4639
Q 3797 4528 4122 4306
z
" transform="scale(0.015625)"/>
       <path id="DejaVuSans-3d4" d="M 1159 525
L 1159 -1331
L 581 -1331
L 581 3500
L 1159 3500
L 1159 2969
Q 1341 3281 1617 3432
Q 1894 3584 2278 3584
Q 2916 3584 3314 3078
Q 3713 2572 3713 1747
Q 3713 922 3314 415
Q 2916 -91 2278 -91
Q 1894 -91 1617 61
Q 1341 213 1159 525
z
M 3116 1747
Q 3116 2381 2855 2742
Q 2594 3103 2138 3103
Q 1681 3103 1420 2742
Q 1159 2381 1159 1747
Q 1159 1113 1420 752
Q 1681 391 2138 391
Q 2594 391 2855 752
Q 3116 1113 3116 1747
z
" transform="scale(0.015625)"/>
       <path id="DejaVuSans-3c9" d="M 3597 1894
L 3597 1613
L 953 1613
Q 991 1019 1311 708
Q 1631 397 2203 397
Q 2534 397 2845 478
Q 3156 559 3463 722
L 3463 178
Q 3153 47 2828 -22
Q 2503 -91 2169 -91
Q 1331 -91 842 396
Q 353 884 353 1716
Q 353 2575 817 3079
Q 1281 3584 2069 3584
Q 2775 3584 3186 3129
Q 3597 2675 3597 1894
z
M 3022 2063
Q 3016 2534 2758 2815
Q 2500 3097 2075 3097
Q 1594 3097 1305 2825
Q 1016 2553 972 2059
L 3022 2063
z
" transform="scale(0.015625)"/>
       <path id="DejaVuSans-3c8" d="M 1384 459
L 3053 459
L 3053 3041
L 1844 3041
L 1844 2603
Q 1844 1316 1475 628
L 1384 459
z
M 550 459
Q 834 584 959 850
Q 1266 1509 1266 2838
L 1266 3500
L 3631 3500
L 3631 459
L 4091 459
L 4091 -884
L 3631 -884
L 3631 0
L 794 0
L 794 -884
L 334 -884
L 334 459
L 550 459
z
" transform="scale(0.015625)"/>
       <path id="DejaVuSans-3d1" d="M 581 3500
L 1159 3500
L 1159 2072
L 3025 2072
L 3025 3500
L 3603 3500
L 3603 0
L 3025 0
L 3025 1613
L 1159 1613
L 1159 0
L 581 0
L 581 3500
z
" transform="scale(0.015625)"/>
       <path id="DejaVuSans-3cc" d="M 3578 3500
L 3578 0
L 3006 0
L 3006 2809
L 1319 0
L 581 0
L 581 3500
L 1153 3500
L 1153 697
L 2838 3500
L 3578 3500
z
" transform="scale(0.015625)"/>
       <path id="DejaVuSans-3cd" d="M 3578 3500
L 3578 0
L 3006 0
L 3006 2809
L 1319 0
L 581 0
L 581 3500
L 1153 3500
L 1153 697
L 2838 3500
L 3578 3500
z
M 1103 4862
L 1472 4862
Q 1506 4628 1657 4510
Q 1809 4393 2081 4393
Q 2350 4393 2500 4509
Q 2650 4625 2690 4862
L 3059 4862
Q 3028 4415 2781 4190
Q 2534 3965 2081 3965
Q 1628 3965 1381 4190
Q 1134 4415 1103 4862
z
" transform="scale(0.015625)"/>
       <path id="DejaVuSans-3" transform="scale(0.015625)"/>
       <path id="DejaVuSans-2c" d="M 628 4666
L 1259 4666
L 1259 0
L 628 0
L 628 4666
z
" transform="scale(0.015625)"/>
       <path id="DejaVuSans-52" d="M 1959 3097
Q 1497 3097 1228 2736
Q 959 2375 959 1747
Q 959 1119 1226 758
Q 1494 397 1959 397
Q 2419 397 2687 759
Q 2956 1122 2956 1747
Q 2956 2369 2687 2733
Q 2419 3097 1959 3097
z
M 1959 3584
Q 2709 3584 3137 3096
Q 3566 2609 3566 1747
Q 3566 888 3137 398
Q 2709 -91 1959 -91
Q 1206 -91 779 398
Q 353 888 353 1747
Q 353 2609 779 3096
Q 1206 3584 1959 3584
z
" transform="scale(0.015625)"/>
       <path id="DejaVuSans-38" d="M 556 4666
L 1191 4666
L 1191 1831
Q 1191 1081 1462 751
Q 1734 422 2344 422
Q 2950 422 3222 751
Q 3494 1081 3494 1831
L 3494 4666
L 4128 4666
L 4128 1753
Q 4128 841 3676 375
Q 3225 -91 2344 -91
Q 1459 -91 1007 375
Q 556 841 556 1753
L 556 4666
z
" transform="scale(0.015625)"/>
       <path id="DejaVuSans-3d0" d="M 581 3500
L 1422 3500
L 2416 1156
L 3413 3500
L 4247 3500
L 4247 0
L 3669 0
L 3669 2950
L 2703 672
L 2128 672
L 1159 2950
L 1159 0
L 581 0
L 581 3500
z
" transform="scale(0.015625)"/>
       <path id="DejaVuSans-3c4" d="M 2194 1759
Q 1497 1759 1228 1600
Q 959 1441 959 1056
Q 959 750 1161 570
Q 1363 391 1709 391
Q 2188 391 2477 730
Q 2766 1069 2766 1631
L 2766 1759
L 2194 1759
z
M 3341 1997
L 3341 0
L 2766 0
L 2766 531
Q 2569 213 2275 61
Q 1981 -91 1556 -91
Q 1019 -91 701 211
Q 384 513 384 1019
Q 384 1609 779 1909
Q 1175 2209 1959 2209
L 2766 2209
L 2766 2266
Q 2766 2663 2505 2880
Q 2244 3097 1772 3097
Q 1472 3097 1187 3025
Q 903 2953 641 2809
L 641 3341
Q 956 3463 1253 3523
Q 1550 3584 1831 3584
Q 2591 3584 2966 3190
Q 3341 2797 3341 1997
z
" transform="scale(0.015625)"/>
       <path id="DejaVuSans-3d5" d="M 3122 3366
L 3122 2828
Q 2878 2963 2633 3030
Q 2388 3097 2138 3097
Q 1578 3097 1268 2742
Q 959 2388 959 1747
Q 959 1106 1268 751
Q 1578 397 2138 397
Q 2388 397 2633 464
Q 2878 531 3122 666
L 3122 134
Q 2881 22 2623 -34
Q 2366 -91 2075 -91
Q 1284 -91 818 406
Q 353 903 353 1747
Q 353 2603 823 3093
Q 1294 3584 2113 3584
Q 2378 3584 2631 3529
Q 2884 3475 3122 3366
z
" transform="scale(0.015625)"/>
       <path id="DejaVuSans-3ce" d="M 581 3500
L 1153 3500
L 1153 1856
L 2775 3500
L 3481 3500
L 2144 2147
L 3653 0
L 3009 0
L 1769 1766
L 1153 1141
L 1153 0
L 581 0
L 581 3500
z
" transform="scale(0.015625)"/>
       <path id="DejaVuSans-3d3" d="M 3603 3500
L 3603 0
L 3025 0
L 3025 3041
L 1159 3041
L 1159 0
L 581 0
L 581 3500
L 3603 3500
z
" transform="scale(0.015625)"/>
       <path id="DejaVuSans-3d2" d="M 1959 3097
Q 1497 3097 1228 2736
Q 959 2375 959 1747
Q 959 1119 1226 758
Q 1494 397 1959 397
Q 2419 397 2687 759
Q 2956 1122 2956 1747
Q 2956 2369 2687 2733
Q 2419 3097 1959 3097
z
M 1959 3584
Q 2709 3584 3137 3096
Q 3566 2609 3566 1747
Q 3566 888 3137 398
Q 2709 -91 1959 -91
Q 1206 -91 779 398
Q 353 888 353 1747
Q 353 2609 779 3096
Q 1206 3584 1959 3584
z
" transform="scale(0.015625)"/>
       <path id="DejaVuSans-3cb" d="M 2206 1888
Q 2594 1813 2809 1584
Q 3025 1356 3025 1019
Q 3025 478 2622 193
Q 2219 -91 1475 -91
Q 1225 -91 961 -47
Q 697 -3 416 84
L 416 619
Q 638 503 903 445
Q 1169 388 1459 388
Q 1931 388 2195 563
Q 2459 738 2459 1019
Q 2459 1294 2225 1461
Q 1991 1628 1563 1628
L 1100 1628
L 1100 2103
L 1584 2103
Q 1947 2103 2158 2242
Q 2369 2381 2369 2600
Q 2369 2800 2151 2944
Q 1934 3088 1563 3088
Q 1341 3088 1089 3047
Q 838 3006 534 2916
L 534 3438
Q 841 3513 1106 3550
Q 1372 3588 1609 3588
Q 2222 3588 2576 3342
Q 2931 3097 2931 2656
Q 2931 2366 2743 2164
Q 2556 1963 2206 1888
z
" transform="scale(0.015625)"/>
       <path id="DejaVuSans-3c5" d="M 1991 3584
Q 2741 3584 3169 3096
Q 3597 2609 3597 1747
Q 3597 888 3169 398
Q 2741 -91 1991 -91
Q 1238 -91 822 384
Q 406 859 384 1747
L 366 2463
Q 350 2834 350 2963
Q 350 3463 531 3831
Q 816 4409 1308 4659
Q 1800 4909 2625 4916
Q 3006 4919 3175 4972
L 3334 4516
Q 3181 4453 3041 4450
L 2259 4397
Q 1866 4369 1628 4231
Q 1006 3866 947 3388
L 925 3213
Q 1331 3584 1991 3584
z
M 1991 3097
Q 1528 3097 1259 2736
Q 991 2375 991 1747
Q 991 1119 1258 758
Q 1525 397 1991 397
Q 2450 397 2719 759
Q 2988 1122 2988 1747
Q 2988 2369 2719 2733
Q 2450 3097 1991 3097
z
" transform="scale(0.015625)"/>
       <path id="DejaVuSans-3ca" d="M 2597 3500
L 3169 3500
L 3169 1856
L 4697 3500
L 5366 3500
L 4109 2153
L 5547 0
L 4931 0
L 3753 1769
L 3169 1141
L 3169 0
L 2597 0
L 2597 1141
L 2013 1769
L 834 0
L 219 0
L 1656 2153
L 400 3500
L 1069 3500
L 2597 1856
L 2597 3500
z
" transform="scale(0.015625)"/>
       <path id="DejaVuSans-3e3" d="M 1181 2491
Q 1181 2231 1381 2084
Q 1581 1938 1953 1938
L 2728 1938
L 2728 3041
L 1953 3041
Q 1581 3041 1381 2897
Q 1181 2753 1181 2491
z
M 363 0
L 1431 1534
Q 1069 1616 828 1830
Q 588 2044 588 2491
Q 588 2997 923 3248
Q 1259 3500 1938 3500
L 3306 3500
L 3306 0
L 2728 0
L 2728 1478
L 2013 1478
L 981 0
L 363 0
z
" transform="scale(0.015625)"/>
       <path id="DejaVuSans-f" d="M 750 794
L 1409 794
L 1409 256
L 897 -744
L 494 -744
L 750 256
L 750 794
z
" transform="scale(0.015625)"/>
       <path id="DejaVuSans-8" d="M 4653 2053
Q 4381 2053 4226 1822
Q 4072 1591 4072 1178
Q 4072 772 4226 539
Q 4381 306 4653 306
Q 4919 306 5073 539
Q 5228 772 5228 1178
Q 5228 1588 5073 1820
Q 4919 2053 4653 2053
z
M 4653 2450
Q 5147 2450 5437 2106
Q 5728 1763 5728 1178
Q 5728 594 5436 251
Q 5144 -91 4653 -91
Q 4153 -91 3862 251
Q 3572 594 3572 1178
Q 3572 1766 3864 2108
Q 4156 2450 4653 2450
z
M 1428 4353
Q 1159 4353 1004 4120
Q 850 3888 850 3481
Q 850 3069 1003 2837
Q 1156 2606 1428 2606
Q 1700 2606 1854 2837
Q 2009 3069 2009 3481
Q 2009 3884 1853 4118
Q 1697 4353 1428 4353
z
M 4250 4750
L 4750 4750
L 1831 -91
L 1331 -91
L 4250 4750
z
M 1428 4750
Q 1922 4750 2215 4408
Q 2509 4066 2509 3481
Q 2509 2891 2217 2550
Q 1925 2209 1428 2209
Q 931 2209 642 2551
Q 353 2894 353 3481
Q 353 4063 643 4406
Q 934 4750 1428 4750
z
" transform="scale(0.015625)"/>
      </defs>
      <use xlink:href="#DejaVuSans-3b5"/>
      <use xlink:href="#DejaVuSans-3d4" transform="translate(69.828125 0)"/>
      <use xlink:href="#DejaVuSans-3c9" transform="translate(133.3125 0)"/>
      <use xlink:href="#DejaVuSans-3c8" transform="translate(194.84375 0)"/>
      <use xlink:href="#DejaVuSans-3d1" transform="translate(263.984375 0)"/>
      <use xlink:href="#DejaVuSans-3cc" transform="translate(329.359375 0)"/>
      <use xlink:href="#DejaVuSans-3cd" transform="translate(394.34375 0)"/>
      <use xlink:href="#DejaVuSans-3" transform="translate(459.328125 0)"/>
      <use xlink:href="#DejaVuSans-2c" transform="translate(491.109375 0)"/>
      <use xlink:href="#DejaVuSans-52" transform="translate(520.609375 0)"/>
      <use xlink:href="#DejaVuSans-38" transform="translate(581.796875 0)"/>
      <use xlink:href="#DejaVuSans-3" transform="translate(654.984375 0)"/>
      <use xlink:href="#DejaVuSans-3d0" transform="translate(686.765625 0)"/>
      <use xlink:href="#DejaVuSans-3c4" transform="translate(762.203125 0)"/>
      <use xlink:href="#DejaVuSans-3d5" transform="translate(823.484375 0)"/>
      <use xlink:href="#DejaVuSans-3ce" transform="translate(878.46875 0)"/>
      <use xlink:href="#DejaVuSans-3cc" transform="translate(938.875 0)"/>
      <use xlink:href="#DejaVuSans-3" transform="translate(1003.859375 0)"/>
      <use xlink:href="#DejaVuSans-3d3" transform="translate(1035.640625 0)"/>
      <use xlink:href="#DejaVuSans-3d2" transform="translate(1101.015625 0)"/>
      <use xlink:href="#DejaVuSans-3" transform="translate(1162.203125 0)"/>
      <use xlink:href="#DejaVuSans-3cc" transform="translate(1193.984375 0)"/>
      <use xlink:href="#DejaVuSans-3cb" transform="translate(1258.96875 0)"/>
      <use xlink:href="#DejaVuSans-3d2" transform="translate(1312.140625 0)"/>
      <use xlink:href="#DejaVuSans-3c5" transform="translate(1373.328125 0)"/>
      <use xlink:href="#DejaVuSans-3d4" transform="translate(1435 0)"/>
      <use xlink:href="#DejaVuSans-3c4" transform="translate(1498.484375 0)"/>
      <use xlink:href="#DejaVuSans-3ca" transform="translate(1559.765625 0)"/>
      <use xlink:href="#DejaVuSans-3c9" transform="translate(1649.859375 0)"/>
      <use xlink:href="#DejaVuSans-3d1" transform="translate(1711.390625 0)"/>
      <use xlink:href="#DejaVuSans-3cc" transform="translate(1776.765625 0)"/>
      <use xlink:href="#DejaVuSans-3e3" transform="translate(1841.75 0)"/>
      <use xlink:href="#DejaVuSans-3d0" transform="translate(1901.90625 0)"/>
      <use xlink:href="#DejaVuSans-f" transform="translate(1977.34375 0)"/>
      <use xlink:href="#DejaVuSans-3" transform="translate(2009.125 0)"/>
      <use xlink:href="#DejaVuSans-8" transform="translate(2040.90625 0)"/>
     </g>
    </g>
   </g>
   <g id="matplotlib.axis_2">
    <g id="ytick_1">
     <g id="line2d_7">
      <defs>
       <path id="mce95e07627" d="M 0 0
L -3.5 0
" style="stroke: #000000; stroke-width: 0.8"/>
      </defs>
      <g>
       <use xlink:href="#mce95e07627" x="114.334375" y="201.53475" style="stroke: #000000; stroke-width: 0.8"/>
      </g>
     </g>
     <g id="text_8">
      <!-- UCI · только цвет -->
      <g transform="translate(7.2 205.713461) scale(0.11 -0.11)">
       <defs>
        <path id="DejaVuSans-26" d="M 4122 4306
L 4122 3641
Q 3803 3938 3442 4084
Q 3081 4231 2675 4231
Q 1875 4231 1450 3742
Q 1025 3253 1025 2328
Q 1025 1406 1450 917
Q 1875 428 2675 428
Q 3081 428 3442 575
Q 3803 722 4122 1019
L 4122 359
Q 3791 134 3420 21
Q 3050 -91 2638 -91
Q 1578 -91 968 557
Q 359 1206 359 2328
Q 359 3453 968 4101
Q 1578 4750 2638 4750
Q 3056 4750 3426 4639
Q 3797 4528 4122 4306
z
" transform="scale(0.015625)"/>
        <path id="DejaVuSans-79" d="M 684 2619
L 1344 2619
L 1344 1825
L 684 1825
L 684 2619
z
" transform="scale(0.015625)"/>
        <path id="DejaVuSans-3d6" d="M 188 3500
L 3541 3500
L 3541 3041
L 2147 3041
L 2147 0
L 1581 0
L 1581 3041
L 188 3041
L 188 3500
z
" transform="scale(0.015625)"/>
        <path id="DejaVuSans-3cf" d="M 238 0
L 238 478
Q 806 566 981 959
Q 1194 1513 1194 2928
L 1194 3500
L 3559 3500
L 3559 0
L 2984 0
L 2984 3041
L 1769 3041
L 1769 2694
Q 1769 1344 1494 738
Q 1200 91 238 0
z
" transform="scale(0.015625)"/>
        <path id="DejaVuSans-3e0" d="M 2781 1038
Q 2781 1319 2576 1466
Q 2372 1613 1978 1613
L 1159 1613
L 1159 459
L 1978 459
Q 2372 459 2576 607
Q 2781 756 2781 1038
z
M 581 3500
L 1159 3500
L 1159 2072
L 2003 2072
Q 2672 2072 3033 1817
Q 3394 1563 3394 1038
Q 3394 513 3033 256
Q 2672 0 2003 0
L 581 0
L 581 3500
z
" transform="scale(0.015625)"/>
        <path id="DejaVuSans-3da" d="M 3603 0
L 581 0
L 581 3500
L 1159 3500
L 1159 459
L 3025 459
L 3025 3500
L 3603 3500
L 3603 459
L 4063 459
L 4063 -884
L 3603 -884
L 3603 0
z
" transform="scale(0.015625)"/>
        <path id="DejaVuSans-3c6" d="M 1156 1613
L 1156 459
L 1975 459
Q 2369 459 2575 607
Q 2781 756 2781 1038
Q 2781 1319 2575 1466
Q 2369 1613 1975 1613
L 1156 1613
z
M 1156 3041
L 1156 2072
L 1913 2072
Q 2238 2072 2444 2201
Q 2650 2331 2650 2563
Q 2650 2794 2444 2917
Q 2238 3041 1913 3041
L 1156 3041
z
M 581 3500
L 1950 3500
Q 2566 3500 2897 3275
Q 3228 3050 3228 2634
Q 3228 2313 3059 2123
Q 2891 1934 2559 1888
Q 2956 1813 3175 1575
Q 3394 1338 3394 981
Q 3394 513 3033 256
Q 2672 0 2003 0
L 581 0
L 581 3500
z
" transform="scale(0.015625)"/>
       </defs>
       <use xlink:href="#DejaVuSans-38"/>
       <use xlink:href="#DejaVuSans-26" transform="translate(73.1875 0)"/>
       <use xlink:href="#DejaVuSans-2c" transform="translate(143.015625 0)"/>
       <use xlink:href="#DejaVuSans-3" transform="translate(172.515625 0)"/>
       <use xlink:href="#DejaVuSans-79" transform="translate(204.296875 0)"/>
       <use xlink:href="#DejaVuSans-3" transform="translate(236.078125 0)"/>
       <use xlink:href="#DejaVuSans-3d6" transform="translate(267.859375 0)"/>
       <use xlink:href="#DejaVuSans-3d2" transform="translate(326.109375 0)"/>
       <use xlink:href="#DejaVuSans-3cf" transform="translate(387.296875 0)"/>
       <use xlink:href="#DejaVuSans-3e0" transform="translate(451.21875 0)"/>
       <use xlink:href="#DejaVuSans-3ce" transform="translate(510.15625 0)"/>
       <use xlink:href="#DejaVuSans-3d2" transform="translate(570.5625 0)"/>
       <use xlink:href="#DejaVuSans-3" transform="translate(631.75 0)"/>
       <use xlink:href="#DejaVuSans-3da" transform="translate(663.53125 0)"/>
       <use xlink:href="#DejaVuSans-3c6" transform="translate(731.59375 0)"/>
       <use xlink:href="#DejaVuSans-3c9" transform="translate(790.53125 0)"/>
       <use xlink:href="#DejaVuSans-3d6" transform="translate(852.0625 0)"/>
      </g>
     </g>
    </g>
    <g id="ytick_2">
     <g id="line2d_8">
      <g>
       <use xlink:href="#mce95e07627" x="114.334375" y="67.13475" style="stroke: #000000; stroke-width: 0.8"/>
      </g>
     </g>
     <g id="text_9">
      <!-- Seg1 · U-Net -->
      <g transform="translate(37.783437 71.313461) scale(0.11 -0.11)">
       <defs>
        <path id="DejaVuSans-36" d="M 3425 4513
L 3425 3897
Q 3066 4069 2747 4153
Q 2428 4238 2131 4238
Q 1616 4238 1336 4038
Q 1056 3838 1056 3469
Q 1056 3159 1242 3001
Q 1428 2844 1947 2747
L 2328 2669
Q 3034 2534 3370 2195
Q 3706 1856 3706 1288
Q 3706 609 3251 259
Q 2797 -91 1919 -91
Q 1588 -91 1214 -16
Q 841 59 441 206
L 441 856
Q 825 641 1194 531
Q 1563 422 1919 422
Q 2459 422 2753 634
Q 3047 847 3047 1241
Q 3047 1584 2836 1778
Q 2625 1972 2144 2069
L 1759 2144
Q 1053 2284 737 2584
Q 422 2884 422 3419
Q 422 4038 858 4394
Q 1294 4750 2059 4750
Q 2388 4750 2728 4690
Q 3069 4631 3425 4513
z
" transform="scale(0.015625)"/>
        <path id="DejaVuSans-48" d="M 3597 1894
L 3597 1613
L 953 1613
Q 991 1019 1311 708
Q 1631 397 2203 397
Q 2534 397 2845 478
Q 3156 559 3463 722
L 3463 178
Q 3153 47 2828 -22
Q 2503 -91 2169 -91
Q 1331 -91 842 396
Q 353 884 353 1716
Q 353 2575 817 3079
Q 1281 3584 2069 3584
Q 2775 3584 3186 3129
Q 3597 2675 3597 1894
z
M 3022 2063
Q 3016 2534 2758 2815
Q 2500 3097 2075 3097
Q 1594 3097 1305 2825
Q 1016 2553 972 2059
L 3022 2063
z
" transform="scale(0.015625)"/>
        <path id="DejaVuSans-4a" d="M 2906 1791
Q 2906 2416 2648 2759
Q 2391 3103 1925 3103
Q 1463 3103 1205 2759
Q 947 2416 947 1791
Q 947 1169 1205 825
Q 1463 481 1925 481
Q 2391 481 2648 825
Q 2906 1169 2906 1791
z
M 3481 434
Q 3481 -459 3084 -895
Q 2688 -1331 1869 -1331
Q 1566 -1331 1297 -1286
Q 1028 -1241 775 -1147
L 775 -588
Q 1028 -725 1275 -790
Q 1522 -856 1778 -856
Q 2344 -856 2625 -561
Q 2906 -266 2906 331
L 2906 616
Q 2728 306 2450 153
Q 2172 0 1784 0
Q 1141 0 747 490
Q 353 981 353 1791
Q 353 2603 747 3093
Q 1141 3584 1784 3584
Q 2172 3584 2450 3431
Q 2728 3278 2906 2969
L 2906 3500
L 3481 3500
L 3481 434
z
" transform="scale(0.015625)"/>
        <path id="DejaVuSans-10" d="M 313 2009
L 1997 2009
L 1997 1497
L 313 1497
L 313 2009
z
" transform="scale(0.015625)"/>
        <path id="DejaVuSans-31" d="M 628 4666
L 1478 4666
L 3547 763
L 3547 4666
L 4159 4666
L 4159 0
L 3309 0
L 1241 3903
L 1241 0
L 628 0
L 628 4666
z
" transform="scale(0.015625)"/>
        <path id="DejaVuSans-57" d="M 1172 4494
L 1172 3500
L 2356 3500
L 2356 3053
L 1172 3053
L 1172 1153
Q 1172 725 1289 603
Q 1406 481 1766 481
L 2356 481
L 2356 0
L 1766 0
Q 1100 0 847 248
Q 594 497 594 1153
L 594 3053
L 172 3053
L 172 3500
L 594 3500
L 594 4494
L 1172 4494
z
" transform="scale(0.015625)"/>
       </defs>
       <use xlink:href="#DejaVuSans-36"/>
       <use xlink:href="#DejaVuSans-48" transform="translate(63.484375 0)"/>
       <use xlink:href="#DejaVuSans-4a" transform="translate(125.015625 0)"/>
       <use xlink:href="#DejaVuSans-14" transform="translate(188.5 0)"/>
       <use xlink:href="#DejaVuSans-3" transform="translate(252.125 0)"/>
       <use xlink:href="#DejaVuSans-79" transform="translate(283.90625 0)"/>
       <use xlink:href="#DejaVuSans-3" transform="translate(315.6875 0)"/>
       <use xlink:href="#DejaVuSans-38" transform="translate(347.46875 0)"/>
       <use xlink:href="#DejaVuSans-10" transform="translate(420.65625 0)"/>
       <use xlink:href="#DejaVuSans-31" transform="translate(456.734375 0)"/>
       <use xlink:href="#DejaVuSans-48" transform="translate(531.546875 0)"/>
       <use xlink:href="#DejaVuSans-57" transform="translate(593.078125 0)"/>
      </g>
     </g>
    </g>
   </g>
   <g id="patch_5">
    <path d="M 114.334375 245.21475
L 114.334375 23.45475
" style="fill: none; stroke: #000000; stroke-width: 0.8; stroke-linejoin: miter; stroke-linecap: square"/>
   </g>
   <g id="patch_6">
    <path d="M 114.334375 245.21475
L 638.854375 245.21475
" style="fill: none; stroke: #000000; stroke-width: 0.8; stroke-linejoin: miter; stroke-linecap: square"/>
   </g>
   <g id="text_10">
    <!-- 35.31% -->
    <g style="fill: #162c46" transform="translate(294.439229 204.392172) scale(0.11 -0.11)">
     <defs>
      <path id="DejaVuSans-16" d="M 2597 2516
Q 3050 2419 3304 2112
Q 3559 1806 3559 1356
Q 3559 666 3084 287
Q 2609 -91 1734 -91
Q 1441 -91 1130 -33
Q 819 25 488 141
L 488 750
Q 750 597 1062 519
Q 1375 441 1716 441
Q 2309 441 2620 675
Q 2931 909 2931 1356
Q 2931 1769 2642 2001
Q 2353 2234 1838 2234
L 1294 2234
L 1294 2753
L 1863 2753
Q 2328 2753 2575 2939
Q 2822 3125 2822 3475
Q 2822 3834 2567 4026
Q 2313 4219 1838 4219
Q 1578 4219 1281 4162
Q 984 4106 628 3988
L 628 4550
Q 988 4650 1302 4700
Q 1616 4750 1894 4750
Q 2613 4750 3031 4423
Q 3450 4097 3450 3541
Q 3450 3153 3228 2886
Q 3006 2619 2597 2516
z
" transform="scale(0.015625)"/>
      <path id="DejaVuSans-18" d="M 691 4666
L 3169 4666
L 3169 4134
L 1269 4134
L 1269 2991
Q 1406 3038 1543 3061
Q 1681 3084 1819 3084
Q 2600 3084 3056 2656
Q 3513 2228 3513 1497
Q 3513 744 3044 326
Q 2575 -91 1722 -91
Q 1428 -91 1123 -41
Q 819 9 494 109
L 494 744
Q 775 591 1075 516
Q 1375 441 1709 441
Q 2250 441 2565 725
Q 2881 1009 2881 1497
Q 2881 1984 2565 2268
Q 2250 2553 1709 2553
Q 1456 2553 1204 2497
Q 953 2441 691 2322
L 691 4666
z
" transform="scale(0.015625)"/>
      <path id="DejaVuSans-11" d="M 684 794
L 1344 794
L 1344 0
L 684 0
L 684 794
z
" transform="scale(0.015625)"/>
     </defs>
     <use xlink:href="#DejaVuSans-16"/>
     <use xlink:href="#DejaVuSans-18" transform="translate(63.625 0)"/>
     <use xlink:href="#DejaVuSans-11" transform="translate(127.25 0)"/>
     <use xlink:href="#DejaVuSans-16" transform="translate(159.03125 0)"/>
     <use xlink:href="#DejaVuSans-14" transform="translate(222.65625 0)"/>
     <use xlink:href="#DejaVuSans-8" transform="translate(286.28125 0)"/>
    </g>
   </g>
   <g id="text_11">
    <!-- 94.33% -->
    <g style="fill: #162c46" transform="translate(583.72366 69.992172) scale(0.11 -0.11)">
     <defs>
      <path id="DejaVuSans-1c" d="M 703 97
L 703 672
Q 941 559 1184 500
Q 1428 441 1663 441
Q 2288 441 2617 861
Q 2947 1281 2994 2138
Q 2813 1869 2534 1725
Q 2256 1581 1919 1581
Q 1219 1581 811 2004
Q 403 2428 403 3163
Q 403 3881 828 4315
Q 1253 4750 1959 4750
Q 2769 4750 3195 4129
Q 3622 3509 3622 2328
Q 3622 1225 3098 567
Q 2575 -91 1691 -91
Q 1453 -91 1209 -44
Q 966 3 703 97
z
M 1959 2075
Q 2384 2075 2632 2365
Q 2881 2656 2881 3163
Q 2881 3666 2632 3958
Q 2384 4250 1959 4250
Q 1534 4250 1286 3958
Q 1038 3666 1038 3163
Q 1038 2656 1286 2365
Q 1534 2075 1959 2075
z
" transform="scale(0.015625)"/>
     </defs>
     <use xlink:href="#DejaVuSans-1c"/>
     <use xlink:href="#DejaVuSans-17" transform="translate(63.625 0)"/>
     <use xlink:href="#DejaVuSans-11" transform="translate(127.25 0)"/>
     <use xlink:href="#DejaVuSans-16" transform="translate(159.03125 0)"/>
     <use xlink:href="#DejaVuSans-16" transform="translate(222.65625 0)"/>
     <use xlink:href="#DejaVuSans-8" transform="translate(286.28125 0)"/>
    </g>
   </g>
   <g id="text_12">
    <!-- Это пересечение масок, не процент правильно распознанных лиц. -->
    <g style="fill: #162c46" transform="translate(114.334375 296.351808) scale(0.09 -0.09)">
     <defs>
      <path id="DejaVuSans-3c1" d="M 347 1019
Q 1006 428 1806 428
Q 2631 428 3003 872
Q 3375 1316 3444 2063
L 950 2063
L 950 2594
L 3444 2594
Q 3375 3341 3003 3786
Q 2631 4231 1806 4231
Q 1006 4231 347 3641
L 347 4306
Q 997 4750 1844 4750
Q 2891 4750 3500 4101
Q 4109 3453 4109 2331
Q 4109 1206 3500 557
Q 2891 -91 1844 -91
Q 1009 -91 347 359
L 347 1019
z
" transform="scale(0.015625)"/>
      <path id="DejaVuSans-3db" d="M 2625 0
L 2625 1472
L 1553 1472
Q 1075 1472 756 1769
Q 469 2038 469 2613
L 469 3500
L 1044 3500
L 1044 2666
Q 1044 2300 1206 2116
Q 1372 1931 1697 1931
L 2625 1931
L 2625 3500
L 3200 3500
L 3200 0
L 2625 0
z
" transform="scale(0.015625)"/>
      <path id="DejaVuSans-3df" d="M 3909 3500
L 4484 3500
L 4484 0
L 3909 0
L 3909 3500
z
M 4197 3584
L 4197 3584
z
M 2781 1038
Q 2781 1319 2576 1466
Q 2372 1613 1978 1613
L 1159 1613
L 1159 459
L 1978 459
Q 2372 459 2576 607
Q 2781 756 2781 1038
z
M 581 3500
L 1159 3500
L 1159 2072
L 2003 2072
Q 2672 2072 3033 1817
Q 3394 1563 3394 1038
Q 3394 513 3033 256
Q 2672 0 2003 0
L 581 0
L 581 3500
z
" transform="scale(0.015625)"/>
      <path id="DejaVuSans-3d9" d="M 3513 3500
L 2247 1797
L 3578 0
L 2900 0
L 1881 1375
L 863 0
L 184 0
L 1544 1831
L 300 3500
L 978 3500
L 1906 2253
L 2834 3500
L 3513 3500
z
" transform="scale(0.015625)"/>
     </defs>
     <use xlink:href="#DejaVuSans-3c1"/>
     <use xlink:href="#DejaVuSans-3d6" transform="translate(69.828125 0)"/>
     <use xlink:href="#DejaVuSans-3d2" transform="translate(128.078125 0)"/>
     <use xlink:href="#DejaVuSans-3" transform="translate(189.265625 0)"/>
     <use xlink:href="#DejaVuSans-3d3" transform="translate(221.046875 0)"/>
     <use xlink:href="#DejaVuSans-3c9" transform="translate(286.421875 0)"/>
     <use xlink:href="#DejaVuSans-3d4" transform="translate(347.953125 0)"/>
     <use xlink:href="#DejaVuSans-3c9" transform="translate(411.4375 0)"/>
     <use xlink:href="#DejaVuSans-3d5" transform="translate(472.96875 0)"/>
     <use xlink:href="#DejaVuSans-3c9" transform="translate(527.953125 0)"/>
     <use xlink:href="#DejaVuSans-3db" transform="translate(589.484375 0)"/>
     <use xlink:href="#DejaVuSans-3c9" transform="translate(648.5625 0)"/>
     <use xlink:href="#DejaVuSans-3d1" transform="translate(710.09375 0)"/>
     <use xlink:href="#DejaVuSans-3cc" transform="translate(775.46875 0)"/>
     <use xlink:href="#DejaVuSans-3c9" transform="translate(840.453125 0)"/>
     <use xlink:href="#DejaVuSans-3" transform="translate(901.984375 0)"/>
     <use xlink:href="#DejaVuSans-3d0" transform="translate(933.765625 0)"/>
     <use xlink:href="#DejaVuSans-3c4" transform="translate(1009.203125 0)"/>
     <use xlink:href="#DejaVuSans-3d5" transform="translate(1070.484375 0)"/>
     <use xlink:href="#DejaVuSans-3d2" transform="translate(1125.46875 0)"/>
     <use xlink:href="#DejaVuSans-3ce" transform="translate(1186.65625 0)"/>
     <use xlink:href="#DejaVuSans-f" transform="translate(1247.0625 0)"/>
     <use xlink:href="#DejaVuSans-3" transform="translate(1278.84375 0)"/>
     <use xlink:href="#DejaVuSans-3d1" transform="translate(1310.625 0)"/>
     <use xlink:href="#DejaVuSans-3c9" transform="translate(1376 0)"/>
     <use xlink:href="#DejaVuSans-3" transform="translate(1437.53125 0)"/>
     <use xlink:href="#DejaVuSans-3d3" transform="translate(1469.3125 0)"/>
     <use xlink:href="#DejaVuSans-3d4" transform="translate(1534.6875 0)"/>
     <use xlink:href="#DejaVuSans-3d2" transform="translate(1598.171875 0)"/>
     <use xlink:href="#DejaVuSans-3da" transform="translate(1659.359375 0)"/>
     <use xlink:href="#DejaVuSans-3c9" transform="translate(1727.421875 0)"/>
     <use xlink:href="#DejaVuSans-3d1" transform="translate(1788.953125 0)"/>
     <use xlink:href="#DejaVuSans-3d6" transform="translate(1854.328125 0)"/>
     <use xlink:href="#DejaVuSans-3" transform="translate(1912.578125 0)"/>
     <use xlink:href="#DejaVuSans-3d3" transform="translate(1944.359375 0)"/>
     <use xlink:href="#DejaVuSans-3d4" transform="translate(2009.734375 0)"/>
     <use xlink:href="#DejaVuSans-3c4" transform="translate(2073.21875 0)"/>
     <use xlink:href="#DejaVuSans-3c6" transform="translate(2134.5 0)"/>
     <use xlink:href="#DejaVuSans-3cc" transform="translate(2193.4375 0)"/>
     <use xlink:href="#DejaVuSans-3cf" transform="translate(2258.421875 0)"/>
     <use xlink:href="#DejaVuSans-3e0" transform="translate(2322.34375 0)"/>
     <use xlink:href="#DejaVuSans-3d1" transform="translate(2381.28125 0)"/>
     <use xlink:href="#DejaVuSans-3d2" transform="translate(2446.65625 0)"/>
     <use xlink:href="#DejaVuSans-3" transform="translate(2507.84375 0)"/>
     <use xlink:href="#DejaVuSans-3d4" transform="translate(2539.625 0)"/>
     <use xlink:href="#DejaVuSans-3c4" transform="translate(2603.109375 0)"/>
     <use xlink:href="#DejaVuSans-3d5" transform="translate(2664.390625 0)"/>
     <use xlink:href="#DejaVuSans-3d3" transform="translate(2719.375 0)"/>
     <use xlink:href="#DejaVuSans-3d2" transform="translate(2784.75 0)"/>
     <use xlink:href="#DejaVuSans-3cb" transform="translate(2845.9375 0)"/>
     <use xlink:href="#DejaVuSans-3d1" transform="translate(2899.109375 0)"/>
     <use xlink:href="#DejaVuSans-3c4" transform="translate(2964.484375 0)"/>
     <use xlink:href="#DejaVuSans-3d1" transform="translate(3025.765625 0)"/>
     <use xlink:href="#DejaVuSans-3d1" transform="translate(3091.140625 0)"/>
     <use xlink:href="#DejaVuSans-3df" transform="translate(3156.515625 0)"/>
     <use xlink:href="#DejaVuSans-3d9" transform="translate(3235.46875 0)"/>
     <use xlink:href="#DejaVuSans-3" transform="translate(3294.65625 0)"/>
     <use xlink:href="#DejaVuSans-3cf" transform="translate(3326.4375 0)"/>
     <use xlink:href="#DejaVuSans-3cc" transform="translate(3390.359375 0)"/>
     <use xlink:href="#DejaVuSans-3da" transform="translate(3455.34375 0)"/>
     <use xlink:href="#DejaVuSans-11" transform="translate(3523.40625 0)"/>
    </g>
    <!-- Нативный приборный цвет селфи этой проверкой не измеряется. -->
    <g style="fill: #162c46" transform="translate(114.334375 307.30755) scale(0.09 -0.09)">
     <defs>
      <path id="DejaVuSans-3b1" d="M 628 4666
L 1259 4666
L 1259 2753
L 3553 2753
L 3553 4666
L 4184 4666
L 4184 0
L 3553 0
L 3553 2222
L 1259 2222
L 1259 0
L 628 0
L 628 4666
z
" transform="scale(0.015625)"/>
      <path id="DejaVuSans-3d8" d="M 947 1747
Q 947 1013 1173 702
Q 1400 391 1784 391
Q 2091 391 2447 916
L 2447 2578
Q 2091 3103 1784 3103
Q 1400 3103 1173 2792
Q 947 2481 947 1747
z
M 2447 -1331
L 2447 447
Q 2269 153 2064 31
Q 1859 -91 1600 -91
Q 1078 -91 714 392
Q 350 875 350 1734
Q 350 2594 714 3089
Q 1078 3584 1600 3584
Q 1859 3584 2064 3465
Q 2269 3347 2447 3053
L 2447 4666
L 3025 4666
L 3025 3053
Q 3203 3347 3408 3465
Q 3613 3584 3872 3584
Q 4394 3584 4758 3089
Q 5122 2594 5122 1734
Q 5122 875 4758 392
Q 4394 -91 3872 -91
Q 3613 -91 3408 31
Q 3203 153 3025 447
L 3025 -1331
L 2447 -1331
z
M 4525 1747
Q 4525 2481 4298 2792
Q 4072 3103 3688 3103
Q 3381 3103 3025 2578
L 3025 916
Q 3381 391 3688 391
Q 4072 391 4298 702
Q 4525 1013 4525 1747
z
" transform="scale(0.015625)"/>
      <path id="DejaVuSans-3e1" d="M 353 666
Q 847 397 1338 397
Q 1797 397 2125 664
Q 2453 931 2513 1613
L 738 1613
L 738 2072
L 2494 2072
Q 2456 2400 2207 2748
Q 1959 3097 1338 3097
Q 856 3097 353 2828
L 353 3366
Q 844 3584 1363 3584
Q 2181 3584 2651 3089
Q 3122 2594 3122 1747
Q 3122 903 2664 406
Q 2206 -91 1403 -91
Q 813 -91 353 134
L 353 666
z
" transform="scale(0.015625)"/>
     </defs>
     <use xlink:href="#DejaVuSans-3b1"/>
     <use xlink:href="#DejaVuSans-3c4" transform="translate(75.203125 0)"/>
     <use xlink:href="#DejaVuSans-3d6" transform="translate(136.484375 0)"/>
     <use xlink:href="#DejaVuSans-3cc" transform="translate(194.734375 0)"/>
     <use xlink:href="#DejaVuSans-3c6" transform="translate(259.71875 0)"/>
     <use xlink:href="#DejaVuSans-3d1" transform="translate(318.65625 0)"/>
     <use xlink:href="#DejaVuSans-3df" transform="translate(384.03125 0)"/>
     <use xlink:href="#DejaVuSans-3cd" transform="translate(462.984375 0)"/>
     <use xlink:href="#DejaVuSans-3" transform="translate(527.96875 0)"/>
     <use xlink:href="#DejaVuSans-3d3" transform="translate(559.75 0)"/>
     <use xlink:href="#DejaVuSans-3d4" transform="translate(625.125 0)"/>
     <use xlink:href="#DejaVuSans-3cc" transform="translate(688.609375 0)"/>
     <use xlink:href="#DejaVuSans-3c5" transform="translate(753.59375 0)"/>
     <use xlink:href="#DejaVuSans-3d2" transform="translate(815.265625 0)"/>
     <use xlink:href="#DejaVuSans-3d4" transform="translate(876.453125 0)"/>
     <use xlink:href="#DejaVuSans-3d1" transform="translate(939.9375 0)"/>
     <use xlink:href="#DejaVuSans-3df" transform="translate(1005.3125 0)"/>
     <use xlink:href="#DejaVuSans-3cd" transform="translate(1084.265625 0)"/>
     <use xlink:href="#DejaVuSans-3" transform="translate(1149.25 0)"/>
     <use xlink:href="#DejaVuSans-3da" transform="translate(1181.03125 0)"/>
     <use xlink:href="#DejaVuSans-3c6" transform="translate(1249.09375 0)"/>
     <use xlink:href="#DejaVuSans-3c9" transform="translate(1308.03125 0)"/>
     <use xlink:href="#DejaVuSans-3d6" transform="translate(1369.5625 0)"/>
     <use xlink:href="#DejaVuSans-3" transform="translate(1427.8125 0)"/>
     <use xlink:href="#DejaVuSans-3d5" transform="translate(1459.59375 0)"/>
     <use xlink:href="#DejaVuSans-3c9" transform="translate(1514.578125 0)"/>
     <use xlink:href="#DejaVuSans-3cf" transform="translate(1576.109375 0)"/>
     <use xlink:href="#DejaVuSans-3d8" transform="translate(1640.03125 0)"/>
     <use xlink:href="#DejaVuSans-3cc" transform="translate(1725.53125 0)"/>
     <use xlink:href="#DejaVuSans-3" transform="translate(1790.515625 0)"/>
     <use xlink:href="#DejaVuSans-3e1" transform="translate(1822.296875 0)"/>
     <use xlink:href="#DejaVuSans-3d6" transform="translate(1877.1875 0)"/>
     <use xlink:href="#DejaVuSans-3d2" transform="translate(1935.4375 0)"/>
     <use xlink:href="#DejaVuSans-3cd" transform="translate(1996.625 0)"/>
     <use xlink:href="#DejaVuSans-3" transform="translate(2061.609375 0)"/>
     <use xlink:href="#DejaVuSans-3d3" transform="translate(2093.390625 0)"/>
     <use xlink:href="#DejaVuSans-3d4" transform="translate(2158.765625 0)"/>
     <use xlink:href="#DejaVuSans-3d2" transform="translate(2222.25 0)"/>
     <use xlink:href="#DejaVuSans-3c6" transform="translate(2283.4375 0)"/>
     <use xlink:href="#DejaVuSans-3c9" transform="translate(2342.375 0)"/>
     <use xlink:href="#DejaVuSans-3d4" transform="translate(2403.90625 0)"/>
     <use xlink:href="#DejaVuSans-3ce" transform="translate(2467.390625 0)"/>
     <use xlink:href="#DejaVuSans-3d2" transform="translate(2527.796875 0)"/>
     <use xlink:href="#DejaVuSans-3cd" transform="translate(2588.984375 0)"/>
     <use xlink:href="#DejaVuSans-3" transform="translate(2653.96875 0)"/>
     <use xlink:href="#DejaVuSans-3d1" transform="translate(2685.75 0)"/>
     <use xlink:href="#DejaVuSans-3c9" transform="translate(2751.125 0)"/>
     <use xlink:href="#DejaVuSans-3" transform="translate(2812.65625 0)"/>
     <use xlink:href="#DejaVuSans-3cc" transform="translate(2844.4375 0)"/>
     <use xlink:href="#DejaVuSans-3cb" transform="translate(2909.421875 0)"/>
     <use xlink:href="#DejaVuSans-3d0" transform="translate(2962.59375 0)"/>
     <use xlink:href="#DejaVuSans-3c9" transform="translate(3038.03125 0)"/>
     <use xlink:href="#DejaVuSans-3d4" transform="translate(3099.5625 0)"/>
     <use xlink:href="#DejaVuSans-3e3" transform="translate(3163.046875 0)"/>
     <use xlink:href="#DejaVuSans-3c9" transform="translate(3223.203125 0)"/>
     <use xlink:href="#DejaVuSans-3d6" transform="translate(3284.734375 0)"/>
     <use xlink:href="#DejaVuSans-3d5" transform="translate(3342.984375 0)"/>
     <use xlink:href="#DejaVuSans-3e3" transform="translate(3397.96875 0)"/>
     <use xlink:href="#DejaVuSans-11" transform="translate(3458.125 0)"/>
    </g>
   </g>
   <g id="text_13">
    <!-- Выделение кожи · одна и та же подвыборка 128 TEST-фото -->
    <g style="fill: #162c46" transform="translate(168.196281 17.45475) scale(0.132 -0.132)">
     <defs>
      <path id="DejaVuSans-3a6" d="M 1259 2228
L 1259 519
L 2272 519
Q 2781 519 3026 730
Q 3272 941 3272 1375
Q 3272 1813 3026 2020
Q 2781 2228 2272 2228
L 1259 2228
z
M 1259 4147
L 1259 2741
L 2194 2741
Q 2656 2741 2882 2914
Q 3109 3088 3109 3444
Q 3109 3797 2882 3972
Q 2656 4147 2194 4147
L 1259 4147
z
M 628 4666
L 2241 4666
Q 2963 4666 3353 4366
Q 3744 4066 3744 3513
Q 3744 3084 3544 2831
Q 3344 2578 2956 2516
Q 3422 2416 3680 2098
Q 3938 1781 3938 1306
Q 3938 681 3513 340
Q 3088 0 2303 0
L 628 0
L 628 4666
z
" transform="scale(0.015625)"/>
      <path id="DejaVuSans-37" d="M -19 4666
L 3928 4666
L 3928 4134
L 2272 4134
L 2272 0
L 1638 0
L 1638 4134
L -19 4134
L -19 4666
z
" transform="scale(0.015625)"/>
      <path id="DejaVuSans-28" d="M 628 4666
L 3578 4666
L 3578 4134
L 1259 4134
L 1259 2753
L 3481 2753
L 3481 2222
L 1259 2222
L 1259 531
L 3634 531
L 3634 0
L 628 0
L 628 4666
z
" transform="scale(0.015625)"/>
     </defs>
     <use xlink:href="#DejaVuSans-3a6"/>
     <use xlink:href="#DejaVuSans-3df" transform="translate(68.609375 0)"/>
     <use xlink:href="#DejaVuSans-3c8" transform="translate(147.5625 0)"/>
     <use xlink:href="#DejaVuSans-3c9" transform="translate(216.703125 0)"/>
     <use xlink:href="#DejaVuSans-3cf" transform="translate(278.234375 0)"/>
     <use xlink:href="#DejaVuSans-3c9" transform="translate(342.15625 0)"/>
     <use xlink:href="#DejaVuSans-3d1" transform="translate(403.6875 0)"/>
     <use xlink:href="#DejaVuSans-3cc" transform="translate(469.0625 0)"/>
     <use xlink:href="#DejaVuSans-3c9" transform="translate(534.046875 0)"/>
     <use xlink:href="#DejaVuSans-3" transform="translate(595.578125 0)"/>
     <use xlink:href="#DejaVuSans-3ce" transform="translate(627.359375 0)"/>
     <use xlink:href="#DejaVuSans-3d2" transform="translate(687.765625 0)"/>
     <use xlink:href="#DejaVuSans-3ca" transform="translate(748.953125 0)"/>
     <use xlink:href="#DejaVuSans-3cc" transform="translate(839.046875 0)"/>
     <use xlink:href="#DejaVuSans-3" transform="translate(904.03125 0)"/>
     <use xlink:href="#DejaVuSans-79" transform="translate(935.8125 0)"/>
     <use xlink:href="#DejaVuSans-3" transform="translate(967.59375 0)"/>
     <use xlink:href="#DejaVuSans-3d2" transform="translate(999.375 0)"/>
     <use xlink:href="#DejaVuSans-3c8" transform="translate(1060.5625 0)"/>
     <use xlink:href="#DejaVuSans-3d1" transform="translate(1129.703125 0)"/>
     <use xlink:href="#DejaVuSans-3c4" transform="translate(1195.078125 0)"/>
     <use xlink:href="#DejaVuSans-3" transform="translate(1256.359375 0)"/>
     <use xlink:href="#DejaVuSans-3cc" transform="translate(1288.140625 0)"/>
     <use xlink:href="#DejaVuSans-3" transform="translate(1353.125 0)"/>
     <use xlink:href="#DejaVuSans-3d6" transform="translate(1384.90625 0)"/>
     <use xlink:href="#DejaVuSans-3c4" transform="translate(1443.15625 0)"/>
     <use xlink:href="#DejaVuSans-3" transform="translate(1504.4375 0)"/>
     <use xlink:href="#DejaVuSans-3ca" transform="translate(1536.21875 0)"/>
     <use xlink:href="#DejaVuSans-3c9" transform="translate(1626.3125 0)"/>
     <use xlink:href="#DejaVuSans-3" transform="translate(1687.84375 0)"/>
     <use xlink:href="#DejaVuSans-3d3" transform="translate(1719.625 0)"/>
     <use xlink:href="#DejaVuSans-3d2" transform="translate(1785 0)"/>
     <use xlink:href="#DejaVuSans-3c8" transform="translate(1846.1875 0)"/>
     <use xlink:href="#DejaVuSans-3c6" transform="translate(1915.328125 0)"/>
     <use xlink:href="#DejaVuSans-3df" transform="translate(1974.265625 0)"/>
     <use xlink:href="#DejaVuSans-3c5" transform="translate(2053.21875 0)"/>
     <use xlink:href="#DejaVuSans-3d2" transform="translate(2114.890625 0)"/>
     <use xlink:href="#DejaVuSans-3d4" transform="translate(2176.078125 0)"/>
     <use xlink:href="#DejaVuSans-3ce" transform="translate(2239.5625 0)"/>
     <use xlink:href="#DejaVuSans-3c4" transform="translate(2299.96875 0)"/>
     <use xlink:href="#DejaVuSans-3" transform="translate(2361.25 0)"/>
     <use xlink:href="#DejaVuSans-14" transform="translate(2393.03125 0)"/>
     <use xlink:href="#DejaVuSans-15" transform="translate(2456.65625 0)"/>
     <use xlink:href="#DejaVuSans-1b" transform="translate(2520.28125 0)"/>
     <use xlink:href="#DejaVuSans-3" transform="translate(2583.90625 0)"/>
     <use xlink:href="#DejaVuSans-37" transform="translate(2615.6875 0)"/>
     <use xlink:href="#DejaVuSans-28" transform="translate(2676.765625 0)"/>
     <use xlink:href="#DejaVuSans-36" transform="translate(2739.953125 0)"/>
     <use xlink:href="#DejaVuSans-37" transform="translate(2803.4375 0)"/>
     <use xlink:href="#DejaVuSans-10" transform="translate(2855.34375 0)"/>
     <use xlink:href="#DejaVuSans-3d8" transform="translate(2891.421875 0)"/>
     <use xlink:href="#DejaVuSans-3d2" transform="translate(2976.921875 0)"/>
     <use xlink:href="#DejaVuSans-3d6" transform="translate(3038.109375 0)"/>
     <use xlink:href="#DejaVuSans-3d2" transform="translate(3096.359375 0)"/>
    </g>
   </g>
  </g>
 </g>
 <defs>
  <clipPath id="pa5ee5d00d5">
   <rect x="114.334375" y="23.45475" width="524.52" height="221.76"/>
  </clipPath>
 </defs>
</svg>
